{
    "asset": {
        "version": "1.0",
        "generator": "Open Asset Import Library (assimp v4.1.0)"
    },
    "accessors": {
        "mesh_accessor": {
            "bufferView": "mesh_view",
            "byteOffset": 0,
            "byteStride": 0,
            "componentType": 5126,
            "count": 4436,
            "type": "VEC3",
            "max": [
                2.5399999618530275,
                0.6052669882774353,
                0.5997682809829712
            ],
            "min": [
                -0.634778618812561,
                -0.6628726720809937,
                -0.6690799593925476
            ]
        },
        "mesh_accessor_0": {
            "bufferView": "mesh_view_0",
            "byteOffset": 0,
            "byteStride": 0,
            "componentType": 5126,
            "count": 4436,
            "type": "VEC3",
            "max": [
                1.0,
                1.0,
                1.0
            ],
            "min": [
                -0.9978493452072144,
                -0.9978684186935425,
                -1.0
            ]
        },
        "mesh_accessor_1": {
            "bufferView": "mesh_view_1",
            "byteOffset": 0,
            "byteStride": 0,
            "componentType": 5123,
            "count": 6468,
            "type": "SCALAR",
            "max": [
                4435.0
            ],
            "min": [
                0.0
            ]
        }
    },
    "buffers": {
        "../../download/tichqlh140pd/tichqlh140pd": {
            "byteLength": 119400,
            "type": "arraybuffer",
            "uri": "../../download/tichqlh140pd/tichqlh140pd.bin"
        }
    },
    "bufferViews": {
        "mesh_view": {
            "buffer": "../../download/tichqlh140pd/tichqlh140pd",
            "byteOffset": 0,
            "byteLength": 53232,
            "target": 34962
        },
        "mesh_view_0": {
            "buffer": "../../download/tichqlh140pd/tichqlh140pd",
            "byteOffset": 53232,
            "byteLength": 53232,
            "target": 34962
        },
        "mesh_view_1": {
            "buffer": "../../download/tichqlh140pd/tichqlh140pd",
            "byteOffset": 106464,
            "byteLength": 12936,
            "target": 34963
        }
    },
    "materials": {
        "DefaultMaterial": {
            "values": {
                "ambient": [
                    1.0,
                    1.0,
                    1.0,
                    1.0
                ],
                "diffuse": [
                    1.0,
                    1.0,
                    1.0,
                    1.0
                ],
                "specular": [
                    1.0,
                    1.0,
                    1.0,
                    1.0
                ],
                "emission": [
                    0.0,
                    0.0,
                    0.0,
                    1.0
                ],
                "shininess": 0.0
            }
        }
    },
    "meshes": {
        "mesh": {
            "name": "",
            "primitives": [
                {
                    "mode": 4,
                    "material": "DefaultMaterial",
                    "indices": "mesh_accessor_1",
                    "attributes": {
                        "POSITION": "mesh_accessor",
                        "NORMAL": "mesh_accessor_0"
                    }
                }
            ]
        }
    },
    "nodes": {
        "<STL_BINARY>": {
            "meshes": [
                "mesh"
            ]
        }
    },
    "scenes": {
        "defaultScene": {
            "nodes": [
                "<STL_BINARY>"
            ]
        }
    },
    "scene": "defaultScene"
}